<svg version="1.1" id="Layer_1" xmlns="http://www.w3.org/2000/svg" xmlns:xlink="http://www.w3.org/1999/xlink" x="0px" y="0px" width="100%" viewBox="0 0 906 1073" enable-background="new 0 0 906 1073" xml:space="preserve">
<path fill="#FFFFFF" opacity="1.000000" stroke="none" d="&#xA;M476.000000,1074.000000 &#xA;&#x9;C317.333344,1074.000000 159.166672,1074.000000 1.000000,1074.000000 &#xA;&#x9;C1.000000,716.333313 1.000000,358.666656 1.000000,1.000000 &#xA;&#x9;C303.000000,1.000000 605.000000,1.000000 907.000000,1.000000 &#xA;&#x9;C907.000000,358.666656 907.000000,716.333313 907.000000,1074.000000 &#xA;&#x9;C763.500000,1074.000000 620.000000,1074.000000 476.000000,1074.000000 &#xA;M205.310852,1044.872681 &#xA;&#x9;C205.209518,1045.052002 205.108185,1045.231201 205.006836,1045.410522 &#xA;&#x9;C205.292160,1045.188110 205.577484,1044.965698 205.134445,1044.499756 &#xA;&#x9;C198.911926,1033.741089 192.687881,1022.983398 186.467178,1012.223633 &#xA;&#x9;C175.681824,993.568481 176.894913,974.730652 189.888107,961.585205 &#xA;&#x9;C196.455383,954.940918 204.483810,950.591675 213.386047,947.974426 &#xA;&#x9;C241.946503,939.577942 270.743286,939.401062 299.740356,945.583374 &#xA;&#x9;C327.336487,951.467041 352.340149,963.652466 377.150635,976.548889 &#xA;&#x9;C416.184601,996.838745 455.318420,1016.945801 494.656342,1036.638062 &#xA;&#x9;C522.613770,1050.633423 552.272461,1059.181274 583.707397,1059.753296 &#xA;&#x9;C646.311035,1060.892212 700.735168,1040.298706 746.566467,997.353088 &#xA;&#x9;C754.615479,989.810913 760.230591,980.850220 764.407715,970.854248 &#xA;&#x9;C759.371643,967.349731 759.096130,967.307678 754.872925,970.872803 &#xA;&#x9;C753.096252,972.372620 751.534363,974.125305 749.855713,975.743042 &#xA;&#x9;C734.414246,990.623779 717.315430,1003.139343 697.770752,1012.144775 &#xA;&#x9;C655.798279,1031.484253 613.182251,1030.729248 571.420593,1013.066895 &#xA;&#x9;C543.668457,1001.329590 517.082886,986.707092 490.441650,972.501099 &#xA;&#x9;C454.534485,953.354187 419.518433,932.500732 383.301758,913.979553 &#xA;&#x9;C346.420959,895.118591 307.091919,884.580383 265.105408,886.837769 &#xA;&#x9;C243.514923,887.998474 222.512146,891.659485 203.107712,901.852478 &#xA;&#x9;C176.049850,916.065674 160.361694,939.101807 154.365295,968.308838 &#xA;&#x9;C148.374619,997.488220 174.315826,1037.342651 202.864609,1045.080566 &#xA;&#x9;C203.771454,1045.326294 204.867905,1044.872314 205.310852,1044.872681 &#xA;M606.258179,991.191956 &#xA;&#x9;C625.990906,995.157349 645.700012,994.816589 665.170105,989.913208 &#xA;&#x9;C703.952454,980.145996 734.032288,958.577881 752.110596,922.414917 &#xA;&#x9;C771.894531,882.840393 753.291931,840.555298 710.978577,827.772827 &#xA;&#x9;C691.541687,821.901184 671.862305,822.631836 652.283081,827.505127 &#xA;&#x9;C633.913635,832.077332 617.918579,841.444641 602.548218,852.128540 &#xA;&#x9;C595.801758,856.817993 588.786011,861.119995 581.175598,866.063599 &#xA;&#x9;C580.743835,858.592285 580.078918,852.167053 580.047546,845.738708 &#xA;&#x9;C579.797546,794.587219 579.670837,743.435059 579.500244,692.283142 &#xA;&#x9;C579.395264,660.793213 579.253601,629.303345 579.175842,597.813354 &#xA;&#x9;C579.089478,562.817871 579.027405,527.822327 579.006592,492.826782 &#xA;&#x9;C578.936646,375.336578 578.887390,257.846344 578.835938,140.356140 &#xA;&#x9;C578.823853,112.691269 578.856750,85.026360 578.824463,57.361511 &#xA;&#x9;C578.808594,43.731606 574.044678,38.972694 560.494690,39.004826 &#xA;&#x9;C495.842346,39.158138 431.190033,39.328049 366.537750,39.511776 &#xA;&#x9;C363.544403,39.520283 360.547028,39.647812 357.559326,39.840794 &#xA;&#x9;C346.595337,40.549023 341.675751,45.514980 341.034180,56.473969 &#xA;&#x9;C340.936890,58.136211 340.913544,59.804440 340.906921,61.470097 &#xA;&#x9;C340.656219,124.779243 340.368866,188.088287 340.180542,251.397614 &#xA;&#x9;C340.049194,295.557861 340.054535,339.718506 339.999207,383.878967 &#xA;&#x9;C339.996948,385.691467 339.998901,387.503967 339.998901,389.065430 &#xA;&#x9;C344.078064,391.973969 346.547729,390.831360 349.285553,387.320190 &#xA;&#x9;C359.010925,374.847656 369.064301,362.630493 379.017151,350.335815 &#xA;&#x9;C397.019196,328.097931 404.267639,302.405487 403.479065,274.147827 &#xA;&#x9;C403.098480,260.508575 402.344849,246.874817 402.219086,233.234329 &#xA;&#x9;C401.855133,193.756592 401.699127,154.276810 401.516449,114.797600 &#xA;&#x9;C401.462555,103.151222 400.995636,91.463493 401.783783,79.867157 &#xA;&#x9;C402.825348,64.541496 408.826904,58.707745 424.094971,58.030376 &#xA;&#x9;C440.882172,57.285606 457.709076,57.208702 474.517456,57.258224 &#xA;&#x9;C483.976807,57.286095 493.464996,57.834518 502.881409,58.751934 &#xA;&#x9;C509.998657,59.445343 514.182861,63.955353 515.275391,71.089661 &#xA;&#x9;C515.677490,73.715630 516.088135,76.369850 516.128906,79.016830 &#xA;&#x9;C516.416382,97.663345 516.817017,116.311699 516.784912,134.958786 &#xA;&#x9;C516.729065,167.438782 516.233643,199.918289 516.225647,232.398056 &#xA;&#x9;C516.221130,250.763000 513.969666,268.629730 505.753326,285.245819 &#xA;&#x9;C468.142365,361.307068 419.716339,429.432434 356.758118,486.726654 &#xA;&#x9;C346.281281,496.261017 341.430054,507.484100 341.431915,521.501404 &#xA;&#x9;C341.438385,570.321716 341.117157,619.141846 341.011993,667.962280 &#xA;&#x9;C340.898224,720.788696 340.886902,773.615356 340.831207,826.441895 &#xA;&#x9;C340.829407,828.173340 340.830994,829.904846 340.830994,831.781128 &#xA;&#x9;C330.136047,830.713196 320.223206,829.612183 310.289581,828.751099 &#xA;&#x9;C271.576538,825.395569 234.436478,831.130981 198.963287,847.470764 &#xA;&#x9;C178.918915,856.703613 161.656296,869.091003 149.384048,887.456787 &#xA;&#x9;C154.857727,892.584961 160.354233,890.675964 165.779999,886.893066 &#xA;&#x9;C166.598801,886.322144 167.407471,885.736694 168.220917,885.158142 &#xA;&#x9;C185.373932,872.957947 204.214417,864.425171 224.774612,860.020020 &#xA;&#x9;C269.355042,850.468445 313.118286,854.668945 356.174896,868.640198 &#xA;&#x9;C390.834839,879.886902 422.569885,897.283447 454.049835,915.262268 &#xA;&#x9;C487.804291,934.540161 521.577759,953.798462 555.687500,972.434631 &#xA;&#x9;C571.270935,980.948853 587.683289,987.944092 606.258179,991.191956 &#xA;M708.903015,74.183800 &#xA;&#x9;C710.325989,73.354340 711.941895,72.737953 713.136719,71.656410 &#xA;&#x9;C717.082214,68.084831 721.038391,64.499138 724.692383,60.636959 &#xA;&#x9;C731.527649,53.412369 738.153809,45.989933 744.947266,38.561943 &#xA;&#x9;C733.874878,27.850975 721.817993,16.187559 709.826843,4.587818 &#xA;&#x9;C698.044006,16.415049 686.459045,28.043652 673.991333,40.558334 &#xA;&#x9;C685.326416,51.523830 696.802673,62.625889 708.903015,74.183800 &#xA;z"></path>
<path fill="#010101" opacity="1.000000" stroke="none" d="&#xA;M605.835815,991.129211 &#xA;&#x9;C587.683289,987.944092 571.270935,980.948853 555.687500,972.434631 &#xA;&#x9;C521.577759,953.798462 487.804291,934.540161 454.049835,915.262268 &#xA;&#x9;C422.569885,897.283447 390.834839,879.886902 356.174896,868.640198 &#xA;&#x9;C313.118286,854.668945 269.355042,850.468445 224.774612,860.020020 &#xA;&#x9;C204.214417,864.425171 185.373932,872.957947 168.220917,885.158142 &#xA;&#x9;C167.407471,885.736694 166.598801,886.322144 165.779999,886.893066 &#xA;&#x9;C160.354233,890.675964 154.857727,892.584961 149.384048,887.456787 &#xA;&#x9;C161.656296,869.091003 178.918915,856.703613 198.963287,847.470764 &#xA;&#x9;C234.436478,831.130981 271.576538,825.395569 310.289581,828.751099 &#xA;&#x9;C320.223206,829.612183 330.136047,830.713196 340.830994,831.781128 &#xA;&#x9;C340.830994,829.904846 340.829407,828.173340 340.831207,826.441895 &#xA;&#x9;C340.886902,773.615356 340.898224,720.788696 341.011993,667.962280 &#xA;&#x9;C341.117157,619.141846 341.438385,570.321716 341.431915,521.501404 &#xA;&#x9;C341.430054,507.484100 346.281281,496.261017 356.758118,486.726654 &#xA;&#x9;C419.716339,429.432434 468.142365,361.307068 505.753326,285.245819 &#xA;&#x9;C513.969666,268.629730 516.221130,250.763000 516.225647,232.398056 &#xA;&#x9;C516.233643,199.918289 516.729065,167.438782 516.784912,134.958786 &#xA;&#x9;C516.817017,116.311699 516.416382,97.663345 516.128906,79.016830 &#xA;&#x9;C516.088135,76.369850 515.677490,73.715630 515.275391,71.089661 &#xA;&#x9;C514.182861,63.955353 509.998657,59.445343 502.881409,58.751934 &#xA;&#x9;C493.464996,57.834518 483.976807,57.286095 474.517456,57.258224 &#xA;&#x9;C457.709076,57.208702 440.882172,57.285606 424.094971,58.030376 &#xA;&#x9;C408.826904,58.707745 402.825348,64.541496 401.783783,79.867157 &#xA;&#x9;C400.995636,91.463493 401.462555,103.151222 401.516449,114.797600 &#xA;&#x9;C401.699127,154.276810 401.855133,193.756592 402.219086,233.234329 &#xA;&#x9;C402.344849,246.874817 403.098480,260.508575 403.479065,274.147827 &#xA;&#x9;C404.267639,302.405487 397.019196,328.097931 379.017151,350.335815 &#xA;&#x9;C369.064301,362.630493 359.010925,374.847656 349.285553,387.320190 &#xA;&#x9;C346.547729,390.831360 344.078064,391.973969 339.998901,389.065430 &#xA;&#x9;C339.998901,387.503967 339.996948,385.691467 339.999207,383.878967 &#xA;&#x9;C340.054535,339.718506 340.049194,295.557861 340.180542,251.397614 &#xA;&#x9;C340.368866,188.088287 340.656219,124.779243 340.906921,61.470097 &#xA;&#x9;C340.913544,59.804440 340.936890,58.136211 341.034180,56.473969 &#xA;&#x9;C341.675751,45.514980 346.595337,40.549023 357.559326,39.840794 &#xA;&#x9;C360.547028,39.647812 363.544403,39.520283 366.537750,39.511776 &#xA;&#x9;C431.190033,39.328049 495.842346,39.158138 560.494690,39.004826 &#xA;&#x9;C574.044678,38.972694 578.808594,43.731606 578.824463,57.361511 &#xA;&#x9;C578.856750,85.026360 578.823853,112.691269 578.835938,140.356140 &#xA;&#x9;C578.887390,257.846344 578.936646,375.336578 579.006592,492.826782 &#xA;&#x9;C579.027405,527.822327 579.089478,562.817871 579.175842,597.813354 &#xA;&#x9;C579.253601,629.303345 579.395264,660.793213 579.500244,692.283142 &#xA;&#x9;C579.670837,743.435059 579.797546,794.587219 580.047546,845.738708 &#xA;&#x9;C580.078918,852.167053 580.743835,858.592285 581.175598,866.063599 &#xA;&#x9;C588.786011,861.119995 595.801758,856.817993 602.548218,852.128540 &#xA;&#x9;C617.918579,841.444641 633.913635,832.077332 652.283081,827.505127 &#xA;&#x9;C671.862305,822.631836 691.541687,821.901184 710.978577,827.772827 &#xA;&#x9;C753.291931,840.555298 771.894531,882.840393 752.110596,922.414917 &#xA;&#x9;C734.032288,958.577881 703.952454,980.145996 665.170105,989.913208 &#xA;&#x9;C645.700012,994.816589 625.990906,995.157349 605.835815,991.129211 &#xA;M408.815521,707.255615 &#xA;&#x9;C415.734009,701.864441 424.165283,697.629517 429.317627,690.888428 &#xA;&#x9;C456.301147,655.584656 482.314606,619.541260 508.992432,584.000610 &#xA;&#x9;C515.682434,575.088135 518.123962,565.425110 518.023804,554.640686 &#xA;&#x9;C517.686523,518.328186 517.356384,482.015228 517.193787,445.701691 &#xA;&#x9;C517.025879,408.209625 517.056824,370.716675 517.001282,333.224091 &#xA;&#x9;C516.998718,331.468903 517.000977,329.713715 517.000977,326.458832 &#xA;&#x9;C512.532227,330.698456 508.580658,333.544830 505.767670,337.254547 &#xA;&#x9;C474.485931,378.508362 443.430603,419.933807 412.173615,461.206482 &#xA;&#x9;C407.428345,467.472229 405.116119,474.314514 405.007446,482.011963 &#xA;&#x9;C404.793427,497.167999 404.528595,512.325012 404.514282,527.481812 &#xA;&#x9;C404.458130,586.975342 404.489288,646.468933 404.505280,705.962524 &#xA;&#x9;C404.505615,707.165100 404.715515,708.367676 404.862671,709.945679 &#xA;&#x9;C406.319794,708.982117 407.285492,708.343567 408.815521,707.255615 &#xA;M475.116425,666.631104 &#xA;&#x9;C456.024658,692.977356 435.470459,718.047424 410.850555,739.501282 &#xA;&#x9;C406.892731,742.950195 404.906311,747.012573 404.857788,752.076416 &#xA;&#x9;C404.596252,779.369507 404.216064,806.663513 404.262238,833.956543 &#xA;&#x9;C404.281311,845.247498 410.092377,853.924316 419.960785,858.838501 &#xA;&#x9;C442.235992,869.930786 464.792511,880.465698 487.347992,890.984131 &#xA;&#x9;C496.917999,895.446899 506.772797,899.298950 516.574707,903.461121 &#xA;&#x9;C516.574707,806.221252 516.574707,709.617493 516.574707,613.013733 &#xA;&#x9;C516.152100,612.761902 515.729492,612.510010 515.306885,612.258179 &#xA;&#x9;C512.142456,615.734009 508.595520,618.936584 505.881622,622.734436 &#xA;&#x9;C495.632568,637.077087 485.654114,651.613220 475.116425,666.631104 &#xA;M699.251038,845.085266 &#xA;&#x9;C692.633606,844.610596 685.984863,843.472046 679.404358,843.781738 &#xA;&#x9;C656.808167,844.845337 636.696472,853.391907 618.576782,866.357788 &#xA;&#x9;C606.559631,874.956909 595.278381,884.610718 583.923706,894.098755 &#xA;&#x9;C577.830261,899.190308 576.592041,906.325745 578.393982,913.697266 &#xA;&#x9;C580.508057,922.346069 586.260315,927.788147 595.019775,929.744141 &#xA;&#x9;C619.176147,935.138245 643.340759,940.496460 667.528625,945.746582 &#xA;&#x9;C669.177307,946.104370 671.216553,945.856934 672.784058,945.199402 &#xA;&#x9;C682.421814,941.156433 692.093018,937.160706 701.530579,932.680542 &#xA;&#x9;C715.568054,926.016724 728.063416,917.354980 735.723206,903.242493 &#xA;&#x9;C743.773743,888.409973 741.318359,872.115601 729.411438,860.255066 &#xA;&#x9;C721.237061,852.112427 711.059753,847.894348 699.251038,845.085266 &#xA;z"></path>
<path fill="#010101" opacity="1.000000" stroke="none" d="&#xA;M205.875946,1044.744507 &#xA;&#x9;C204.867905,1044.872314 203.771454,1045.326294 202.864609,1045.080566 &#xA;&#x9;C174.315826,1037.342651 148.374619,997.488220 154.365295,968.308838 &#xA;&#x9;C160.361694,939.101807 176.049850,916.065674 203.107712,901.852478 &#xA;&#x9;C222.512146,891.659485 243.514923,887.998474 265.105408,886.837769 &#xA;&#x9;C307.091919,884.580383 346.420959,895.118591 383.301758,913.979553 &#xA;&#x9;C419.518433,932.500732 454.534485,953.354187 490.441650,972.501099 &#xA;&#x9;C517.082886,986.707092 543.668457,1001.329590 571.420593,1013.066895 &#xA;&#x9;C613.182251,1030.729248 655.798279,1031.484253 697.770752,1012.144775 &#xA;&#x9;C717.315430,1003.139343 734.414246,990.623779 749.855713,975.743042 &#xA;&#x9;C751.534363,974.125305 753.096252,972.372620 754.872925,970.872803 &#xA;&#x9;C759.096130,967.307678 759.371643,967.349731 764.407715,970.854248 &#xA;&#x9;C760.230591,980.850220 754.615479,989.810913 746.566467,997.353088 &#xA;&#x9;C700.735168,1040.298706 646.311035,1060.892212 583.707397,1059.753296 &#xA;&#x9;C552.272461,1059.181274 522.613770,1050.633423 494.656342,1036.638062 &#xA;&#x9;C455.318420,1016.945801 416.184601,996.838745 377.150635,976.548889 &#xA;&#x9;C352.340149,963.652466 327.336487,951.467041 299.740356,945.583374 &#xA;&#x9;C270.743286,939.401062 241.946503,939.577942 213.386047,947.974426 &#xA;&#x9;C204.483810,950.591675 196.455383,954.940918 189.888107,961.585205 &#xA;&#x9;C176.894913,974.730652 175.681824,993.568481 186.467178,1012.223633 &#xA;&#x9;C192.687881,1022.983398 198.911926,1033.741089 205.449432,1044.633667 &#xA;&#x9;C205.764404,1044.767578 205.875946,1044.744507 205.875946,1044.744507 &#xA;z"></path>
<path fill="#030303" opacity="1.000000" stroke="none" d="&#xA;M708.590942,73.955872 &#xA;&#x9;C696.802673,62.625889 685.326416,51.523830 673.991333,40.558334 &#xA;&#x9;C686.459045,28.043652 698.044006,16.415049 709.826843,4.587818 &#xA;&#x9;C721.817993,16.187559 733.874878,27.850975 744.947266,38.561943 &#xA;&#x9;C738.153809,45.989933 731.527649,53.412369 724.692383,60.636959 &#xA;&#x9;C721.038391,64.499138 717.082214,68.084831 713.136719,71.656410 &#xA;&#x9;C711.941895,72.737953 710.325989,73.354340 708.590942,73.955872 &#xA;z"></path>
<path fill="#010101" opacity="1.000000" stroke="none" d="&#xA;M205.813599,1044.755493 &#xA;&#x9;C205.577484,1044.965698 205.292160,1045.188110 205.006836,1045.410522 &#xA;&#x9;C205.108185,1045.231201 205.209518,1045.052002 205.593399,1044.808594 &#xA;&#x9;C205.875946,1044.744507 205.764404,1044.767578 205.813599,1044.755493 &#xA;z"></path>
<path fill="#FEFEFE" opacity="1.000000" stroke="none" d="&#xA;M408.533325,707.480347 &#xA;&#x9;C407.285492,708.343567 406.319794,708.982117 404.862671,709.945679 &#xA;&#x9;C404.715515,708.367676 404.505615,707.165100 404.505280,705.962524 &#xA;&#x9;C404.489288,646.468933 404.458130,586.975342 404.514282,527.481812 &#xA;&#x9;C404.528595,512.325012 404.793427,497.167999 405.007446,482.011963 &#xA;&#x9;C405.116119,474.314514 407.428345,467.472229 412.173615,461.206482 &#xA;&#x9;C443.430603,419.933807 474.485931,378.508362 505.767670,337.254547 &#xA;&#x9;C508.580658,333.544830 512.532227,330.698456 517.000977,326.458832 &#xA;&#x9;C517.000977,329.713715 516.998718,331.468903 517.001282,333.224091 &#xA;&#x9;C517.056824,370.716675 517.025879,408.209625 517.193787,445.701691 &#xA;&#x9;C517.356384,482.015228 517.686523,518.328186 518.023804,554.640686 &#xA;&#x9;C518.123962,565.425110 515.682434,575.088135 508.992432,584.000610 &#xA;&#x9;C482.314606,619.541260 456.301147,655.584656 429.317627,690.888428 &#xA;&#x9;C424.165283,697.629517 415.734009,701.864441 408.533325,707.480347 &#xA;z"></path>
<path fill="#FEFEFE" opacity="1.000000" stroke="none" d="&#xA;M475.345398,666.354004 &#xA;&#x9;C485.654114,651.613220 495.632568,637.077087 505.881622,622.734436 &#xA;&#x9;C508.595520,618.936584 512.142456,615.734009 515.306885,612.258179 &#xA;&#x9;C515.729492,612.510010 516.152100,612.761902 516.574707,613.013733 &#xA;&#x9;C516.574707,709.617493 516.574707,806.221252 516.574707,903.461121 &#xA;&#x9;C506.772797,899.298950 496.917999,895.446899 487.347992,890.984131 &#xA;&#x9;C464.792511,880.465698 442.235992,869.930786 419.960785,858.838501 &#xA;&#x9;C410.092377,853.924316 404.281311,845.247498 404.262238,833.956543 &#xA;&#x9;C404.216064,806.663513 404.596252,779.369507 404.857788,752.076416 &#xA;&#x9;C404.906311,747.012573 406.892731,742.950195 410.850555,739.501282 &#xA;&#x9;C435.470459,718.047424 456.024658,692.977356 475.345398,666.354004 &#xA;z"></path>
<path fill="#FEFEFE" opacity="1.000000" stroke="none" d="&#xA;M699.668091,845.154358 &#xA;&#x9;C711.059753,847.894348 721.237061,852.112427 729.411438,860.255066 &#xA;&#x9;C741.318359,872.115601 743.773743,888.409973 735.723206,903.242493 &#xA;&#x9;C728.063416,917.354980 715.568054,926.016724 701.530579,932.680542 &#xA;&#x9;C692.093018,937.160706 682.421814,941.156433 672.784058,945.199402 &#xA;&#x9;C671.216553,945.856934 669.177307,946.104370 667.528625,945.746582 &#xA;&#x9;C643.340759,940.496460 619.176147,935.138245 595.019775,929.744141 &#xA;&#x9;C586.260315,927.788147 580.508057,922.346069 578.393982,913.697266 &#xA;&#x9;C576.592041,906.325745 577.830261,899.190308 583.923706,894.098755 &#xA;&#x9;C595.278381,884.610718 606.559631,874.956909 618.576782,866.357788 &#xA;&#x9;C636.696472,853.391907 656.808167,844.845337 679.404358,843.781738 &#xA;&#x9;C685.984863,843.472046 692.633606,844.610596 699.668091,845.154358 &#xA;z"></path>
</svg>