<?xml version="1.0"?>

<svg version="1.1" id="Layer_1" xmlns="http://www.w3.org/2000/svg" xmlns:xlink="http://www.w3.org/1999/xlink" x="0px" y="0px" viewBox="0 0 841.9 866" style="enable-background:new 0 0 841.9 866;" xml:space="preserve">

<path d="M200.4,1C352.1,1,503.8,1,656,1.5c0.5,268,0.5,535.6,0.5,803.2c-152.2,0-304.1,0-456,0C200.4,536.5,200.4,268.8,200.4,1&#xA;&#x9; M503,743c21,9.6,42.7,14.8,65.9,11c31-5.1,55.3-20.7,71.3-47.8c17.9-30.3,2.3-66.4-32.1-74.2c-25.4-5.8-48.8,0.3-70.4,14.3&#xA;&#x9;c-7.7,5-15.3,10.2-23.2,15.5c0-1,0-1.7,0-2.3c-0.3-78.6-0.8-157.2-1-235.8c-0.1-39,0.4-78,0.4-116.9c0-81.3-0.2-162.6-0.3-244&#xA;&#x9;c0-0.7,0-1.3,0-2c-0.3-5.7-3.5-8.7-9.3-8.7c-38-0.1-76-0.3-114-0.2c-14.1,0-28.3,0.6-42.4,1.2c-7.8,0.3-10,3-10,10.4&#xA;&#x9;c0.1,16.7,0,33.3,0,50c-0.1,65.8-0.2,131.6-0.3,197.5c0,1.4,0,2.8,0,4.6c1-0.4,1.5-0.5,1.8-0.8c14.7-16.4,29.4-32.7,39.7-52.4&#xA;&#x9;c4.3-8,6.4-16.6,6.2-25.9c-0.5-27.3-0.7-54.6-0.9-81.9c-0.2-23.2-0.2-46.3-0.6-69.5c-0.2-13.1,4.5-18.4,17.5-18.6&#xA;&#x9;c16.8-0.2,33.6-0.4,50.5-0.5c1.8,0,3.7,0,5.5,0.4c7,1.7,9.9,6.3,9.9,15.7c0,38.7-0.2,77.3,0.1,116c0.1,13.4-2.3,25.9-8.9,37.4&#xA;&#x9;c-12.3,21.5-24.3,43.2-38,63.8c-22.3,33.5-47.8,64.4-79.2,90.1c-1.2,1-1.9,3.4-2,5.1c-0.4,19.5-0.6,39-0.7,58.5&#xA;&#x9;c-0.4,57.6-0.7,115.3-1,172.9c0,3.4,0,6.9,0,10.5c-2-0.2-3.3-0.3-4.6-0.4c-23.9-3.1-47.8-3.1-71.5,2.2&#xA;&#x9;c-18.9,4.2-36.5,11.2-51.9,23.1c-7.4,5.8-9.4,12.5-6.5,21.3c1-0.8,1.9-1.4,2.7-2.2c12-10.7,25.9-17.9,41.4-22.2&#xA;&#x9;c32.1-9,63.9-6,95.5,2.7c28.3,7.8,53.5,22.4,78.8,36.8C448.2,712.8,475.3,727.6,503,743 M431.9,779c5.8,2.8,11.7,5.7,17.5,8.3&#xA;&#x9;c50.6,23.1,100.9,21.5,150.7-2.3c16.4-7.8,30.4-19,42.8-32.2c6.4-6.8,8.1-13.3,5.5-20.5c-0.2,0-0.4,0-0.5,0.1&#xA;&#x9;c-2.8,2.9-5.4,5.8-8.2,8.7c-23.5,23.8-51.6,37-85.4,37c-22.9,0-44.8-5.1-64.9-15.6c-26.9-14.1-53.1-29.5-79.3-44.8&#xA;&#x9;c-30-17.5-60.5-33.5-95.3-39.1c-22.4-3.6-44.7-4-66.6,3.5c-35.8,12.4-53.6,44-43.8,78.3c5,17.7,16.3,29.9,33.7,36.9&#xA;&#x9;c-0.6-3.8-1.8-7.1-1.5-10.2c0.5-5-2.2-7.4-5.5-10.5c-15-13.8-18.3-31.1-1.3-46.4c3.7-3.4,8.3-6.3,13-8.1c18.2-6.9,37-7.4,56.1-4.6&#xA;&#x9;c21.5,3.2,41,12.3,60.1,22C383.4,751.9,407.2,765.5,431.9,779 M637.3,56.1c4.7-1,9.3-1.9,14-2.9c-23.9-2.5-38.5-14.4-41-39.4&#xA;&#x9;c-2.3,10.8-4.7,21-13,28.3c-8.2,7.3-18.8,8.8-29.6,10.8c24.1,1.7,39.6,12.8,42.3,38.4C613.1,74.8,619.1,61.2,637.3,56.1z"></path>
<path class="st0" d="M200,1c0.5,267.8,0.5,535.5,0.5,803.7c151.9,0,303.8,0,456,0c0-267.6,0-535.2,0-803.2C670.1,1,683.8,1,697.4,1&#xA;&#x9;c0,288.6,0,577.2,0,865.9c-183.6,0-367.2,0-550.9,0c0-288.6,0-577.2,0-865.9C164.2,1,181.8,1,200,1z"></path>
<path class="st1" d="M502.6,742.9c-27.3-15.2-54.4-30.1-81.2-45.4c-25.3-14.4-50.4-29-78.8-36.8C311,652,279.3,649,247.1,658&#xA;&#x9;c-15.5,4.3-29.4,11.5-41.4,22.2c-0.8,0.7-1.7,1.4-2.7,2.2c-2.9-8.8-1-15.5,6.5-21.3c15.4-11.9,33.1-18.9,51.9-23.1&#xA;&#x9;c23.7-5.3,47.5-5.3,71.5-2.2c1.3,0.2,2.6,0.2,4.6,0.4c0-3.6,0-7,0-10.5c0.3-57.6,0.6-115.3,1-172.9c0.1-19.5,0.4-39,0.7-58.5&#xA;&#x9;c0-1.7,0.7-4.1,2-5.1c31.4-25.7,56.9-56.6,79.2-90.1c13.7-20.6,25.7-42.3,38-63.8c6.6-11.4,9-24,8.9-37.4&#xA;&#x9;c-0.4-38.7-0.1-77.3-0.1-116c0-9.4-2.9-14-9.9-15.7c-1.8-0.4-3.6-0.4-5.5-0.4c-16.8,0.1-33.6,0.3-50.5,0.5&#xA;&#x9;c-13.1,0.2-17.7,5.5-17.5,18.6c0.4,23.2,0.4,46.3,0.6,69.5c0.2,27.3,0.4,54.6,0.9,81.9c0.2,9.3-2,17.8-6.2,25.9&#xA;&#x9;c-10.4,19.6-25.1,36-39.7,52.4c-0.3,0.3-0.8,0.4-1.8,0.8c0-1.8,0-3.2,0-4.6c0.1-65.8,0.2-131.6,0.3-197.5c0-16.7,0-33.3,0-50&#xA;&#x9;c0-7.5,2.2-10.1,10-10.4c14.1-0.6,28.3-1.1,42.4-1.2c38-0.1,76,0.1,114,0.2c5.8,0,9,3,9.3,8.7c0,0.7,0,1.3,0,2&#xA;&#x9;c0.1,81.3,0.3,162.6,0.3,244c0,39-0.5,78-0.4,116.9c0.2,78.6,0.6,157.2,1,235.8c0,0.6,0,1.3,0,2.3c7.9-5.3,15.5-10.5,23.2-15.5&#xA;&#x9;c21.6-14,45-20.1,70.4-14.3c34.3,7.8,50,43.9,32.1,74.2c-16,27.1-40.3,42.7-71.3,47.8C545.7,757.8,523.9,752.6,502.6,742.9&#xA;&#x9; M417.2,664c0.6,0.1,1.4,0,1.9,0.3c5.5,3.2,11.8,4.8,16.6,9.6c3.2,3.2,8.5,4.3,12.9,6.3c6.1,2.7,12.4,5.2,19.2,8&#xA;&#x9;c0-72.9,0-144.8,0-216.6c-1.1-0.2-1.2,0.5-1.6,1c-10.2,14.8-20.3,29.6-30.5,44.4c-0.7,1-0.9,2.4-1.5,3.6c-2.2,4.4-2.7,9.7-7,12.9&#xA;&#x9;c-4.1,3.1-8.2,6.4-12.3,9.6c0.5,0.6,1,1.2,1.6,1.9c-0.2-0.9-0.5-1.7-0.8-2.9c-7.2,7.5-13.9,15.5-21.6,22.2c-7.1,6.1-9.3,12.8-9.1,22&#xA;&#x9;c0.7,21.4,0.2,42.9,0.2,64.3c10.1,4.5,20.1,9,30.6,13.8C416.2,664.3,416.3,664.1,417.2,664 M405,530c22.6-24.6,42-51.6,59.1-80.2&#xA;&#x9;c2.3-3.9,3.5-9,3.6-13.6c0.4-14.3-0.1-28.6-0.1-43c-0.1-42.1-0.1-84.3-0.2-126.4c0-1.4-0.2-2.7-0.3-4.9c-1.2,1.7-1.8,2.7-2.4,3.6&#xA;&#x9;c-10.3,15.5-19.8,31.6-31,46.4c-14.4,19.1-30.2,37.2-45.2,55.9c-1.7,2.1-3,5.2-3,7.9c-0.2,55.5-0.1,111-0.1,166.4c0,1.4,0,2.8,0,4.2&#xA;&#x9;c0.4,0.2,0.8,0.4,1.3,0.7C392.6,541.6,398.6,536.1,405,530 M545.3,712.7c7,1.3,14,3,21.1,3.9c23.7,2.9,46.9-4,60.6-25.7&#xA;&#x9;c9.1-14.4,5.3-30.3-9.4-39c-14.7-8.7-30.1-9.4-46.1-4.4c-18,5.7-32,17.9-47.3,28.1c-7.6,5.1-11.3,11.1-9.7,20.2c0.3,1.4,0.3,3,0,4.5&#xA;&#x9;c-0.7,3.6,1.2,5,4.4,5.7C527.5,708.1,536,710.3,545.3,712.7z"></path>
<path class="st1" d="M431.6,778.8c-24.4-13.3-48.2-26.9-72.6-39.3c-19-9.7-38.5-18.8-60.1-22c-19-2.8-37.9-2.3-56.1,4.6&#xA;&#x9;c-4.7,1.8-9.3,4.7-13,8.1c-17,15.3-13.7,32.6,1.3,46.4c3.3,3,6,5.4,5.5,10.5c-0.3,3.2,0.9,6.5,1.5,10.2c-17.4-7-28.6-19.2-33.7-36.9&#xA;&#x9;c-9.7-34.3,8-65.9,43.8-78.3c21.8-7.5,44.2-7.1,66.6-3.5c34.8,5.6,65.3,21.6,95.3,39.1c26.2,15.3,52.5,30.7,79.3,44.8&#xA;&#x9;c20.1,10.5,42,15.6,64.9,15.6c33.8,0,61.9-13.2,85.4-37c2.8-2.8,5.5-5.8,8.2-8.7c0.1-0.1,0.3-0.1,0.5-0.1c2.6,7.2,0.9,13.7-5.5,20.5&#xA;&#x9;c-12.4,13.2-26.5,24.4-42.8,32.2c-49.8,23.8-100.1,25.5-150.7,2.3C443.6,784.7,437.8,781.8,431.6,778.8z"></path>
<path class="st2" d="M636.9,56.2c-17.8,5-23.8,18.6-26.8,35.2c-2.7-25.5-18.2-36.7-42.3-38.4c10.8-2.1,21.4-3.5,29.6-10.8&#xA;&#x9;c8.2-7.3,10.7-17.5,13-28.3c2.5,25.1,17.1,36.9,41,39.4C646.6,54.2,642,55.1,636.9,56.2z"></path>
<path class="st3" d="M404.7,530.3c-6.2,5.8-12.1,11.3-18,16.8c-0.4-0.2-0.8-0.4-1.3-0.7c0-1.4,0-2.8,0-4.2c0-55.5,0-111,0.1-166.4&#xA;&#x9;c0-2.7,1.3-5.8,3-7.9c15-18.7,30.8-36.8,45.2-55.9c11.2-14.8,20.7-30.9,31-46.4c0.6-0.9,1.3-1.9,2.4-3.6c0.1,2.2,0.3,3.5,0.3,4.9&#xA;&#x9;c0.1,42.1,0.1,84.3,0.2,126.4c0,14.3,0.5,28.6,0.1,43c-0.1,4.6-1.3,9.7-3.6,13.6C447,478.5,427.6,505.5,404.7,530.3z"></path>
<path class="st3" d="M416.8,663.5"></path>
<path class="st3" d="M385.4,650.6c0-21.4,0.5-42.9-0.2-64.3c-0.3-9.2,2-15.9,9.1-22c7.6-6.6,12.2-12.3,19.3-19.7&#xA;&#x9;c0.2-0.2,2.5-2.9,2.7-2.9c0.5,0.1,2.2-2.8,2.4-2c-0.5-0.6,2.8-1.9,2.2-2.6c4.2-4.5,1.5-2.6,5.6-5.7c3.8-4.6,4.5-7.6,7.9-10.8&#xA;&#x9;c0.6-1.1,0.7-2.5,1.5-3.6c10.1-14.8,20.3-29.6,30.5-44.4c0.4-0.5,0.5-1.2,1.6-1c0,71.8,0,143.7,0,216.6c-6.9-2.9-13.1-5.4-19.2-8&#xA;&#x9;c-4.4-1.9-9.7-3.1-12.9-6.3"></path>
<path class="st3" d="M544.9,712.6c-8.9-2.3-17.4-4.5-26-6.6c-3.2-0.8-5-2.1-4.4-5.7c0.3-1.4,0.3-3,0-4.5c-1.7-9.1,2.1-15.1,9.7-20.2&#xA;&#x9;c15.3-10.3,29.3-22.4,47.3-28.1c16-5.1,31.4-4.3,46.1,4.4c14.7,8.7,18.5,24.6,9.4,39c-13.7,21.8-37,28.6-60.6,25.7&#xA;&#x9;C559.3,715.7,552.3,714,544.9,712.6z"></path>
<path class="st4" d="M418.7,666.2"></path>
</svg>